<svg xmlns="http://www.w3.org/2000/svg" width="742.001" height="694.678" viewBox="0 0 742.001 694.678"><g transform="translate(-5581.44 -4213.458)"><g transform="translate(5611.8 4213.458)"><path d="M6324.975,4598.35q-1.107,15.661-2.877,31.421c-9.121,79.511-32.9,159.194-90.39,220.781-7.2,7.7-14.947,15.157-24.389,20.406-24.843,13.817-61.661,6.626-89.578,6.626H5859.33c-32.158,0-78.1,9.231-104.489-9.835a323.994,323.994,0,0,1-53.867-48.853,312.01,312.01,0,0,1-20.407-25.926c-32.724-46.308-51.95-99.978-60.826-157.35-9.465-61.267-7.375-123.138,18.206-181.062,17.394-39.338,45.078-85.423,88.509-104.1,24.967-10.744,53.671-13.657,80.888-13.977,35.108-.43,71.078-2.348,101.367-20.394,34.224-20.369,59.265-51.47,93.058-72.737,34.052-21.427,73.757-34.347,115.2-28.483,57.642,8.187,103.261,50.069,134.509,95.639,48,69.922,71.631,152.531,74.446,235.545A509.362,509.362,0,0,1,6324.975,4598.35Z" transform="translate(-5614.561 -4213.458)" fill="#e9f8fd"/></g><rect width="557.928" height="367.313" rx="19.83" transform="translate(5697.258 4418.851)" fill="#24b8eb"/><rect width="513.292" height="280.393" transform="translate(5719.576 4447.824)" fill="#e9f8fd"/><g transform="translate(5744.342 4507.571)"><g opacity="0.6"><rect width="1.287" height="191.3" transform="translate(66.423)" fill="#bdeaf9"/><rect width="1.287" height="191.3" fill="#bdeaf9"/><rect width="1.287" height="191.3" transform="translate(132.845)" fill="#bdeaf9"/><rect width="1.287" height="191.3" transform="translate(199.27)" fill="#bdeaf9"/><rect width="1.287" height="191.3" transform="translate(265.694)" fill="#bdeaf9"/><rect width="1.287" height="191.3" transform="translate(332.117)" fill="#bdeaf9"/><rect width="1.287" height="191.3" transform="translate(398.539)" fill="#bdeaf9"/><rect width="1.287" height="191.3" transform="translate(464.962)" fill="#bdeaf9"/></g><g transform="translate(0.643 29.916)" opacity="0.6"><rect width="464.962" height="1.287" transform="translate(0 119.604)" fill="#bdeaf9"/><rect width="464.962" height="1.287" transform="translate(0 59.802)" fill="#bdeaf9"/><rect width="464.962" height="1.287" fill="#bdeaf9"/></g></g><path d="M5762.7,4697.844a3.132,3.132,0,1,1-3.133-3.133A3.132,3.132,0,0,1,5762.7,4697.844Z" transform="translate(-14.585 -40.11)" fill="#ff441d"/><path d="M5762.7,4632.605a3.132,3.132,0,1,1-3.133-3.133A3.132,3.132,0,0,1,5762.7,4632.605Z" transform="translate(-14.585 -34.672)" fill="#ff441d"/><path d="M5762.7,4567.367a3.132,3.132,0,1,1-3.133-3.132A3.13,3.13,0,0,1,5762.7,4567.367Z" transform="translate(-14.585 -29.235)" fill="#ff441d"/><g transform="translate(6157.199 4601.117)"><rect width="16.372" height="97.755" transform="translate(32.743 97.755) rotate(180)" fill="#bdeaf9"/><rect width="16.372" height="85.687" transform="translate(16.372 97.755) rotate(180)" fill="#24b8eb"/></g><g transform="translate(6091.854 4589.722)"><rect width="16.372" height="101.582" transform="translate(32.744 109.15) rotate(180)" fill="#bdeaf9"/><rect width="16.372" height="109.15" transform="translate(16.372 109.15) rotate(180)" fill="#24b8eb"/></g><g transform="translate(6026.509 4546.834)"><rect width="16.372" height="152.038" transform="translate(32.743 152.038) rotate(180)" fill="#bdeaf9"/><rect width="16.372" height="137.951" transform="translate(16.372 152.038) rotate(180)" fill="#24b8eb"/></g><g transform="translate(5961.164 4603.006)"><rect width="16.371" height="83.075" transform="translate(32.744 95.866) rotate(180)" fill="#bdeaf9"/><rect width="16.372" height="95.866" transform="translate(16.372 95.866) rotate(180)" fill="#24b8eb"/></g><g transform="translate(5895.82 4640.914)"><rect width="16.372" height="57.958" transform="translate(32.744 57.958) rotate(180)" fill="#bdeaf9"/><rect width="16.372" height="44.988" transform="translate(16.372 57.958) rotate(180)" fill="#24b8eb"/></g><g transform="translate(5830.475 4634.143)"><rect width="16.372" height="57.958" transform="translate(32.744 64.729) rotate(180)" fill="#bdeaf9"/><rect width="16.372" height="64.729" transform="translate(16.372 64.729) rotate(180)" fill="#24b8eb"/></g><g transform="translate(5765.13 4659.091)"><rect width="16.372" height="25.49" transform="translate(32.744 39.78) rotate(180)" fill="#bdeaf9"/><rect width="16.372" height="39.78" transform="translate(16.372 39.78) rotate(180)" fill="#24b8eb"/></g><path d="M5790.207,4662.863q-1.254,0-2.5-.085l-27.9-1.927.1-1.408,27.9,1.927a35.456,35.456,0,0,0,16.244-2.726l47.563-20.192a36.617,36.617,0,0,1,20.744-2.364l40.58,7.159a35.166,35.166,0,0,0,25.765-5.413l51.72-34.54a35.8,35.8,0,0,0,2.88-2.145l44.849-37.053a36.947,36.947,0,0,1,41.553-3.624l41.865,23.776a35.33,35.33,0,0,0,3.794,1.863l57.182,23.961a35.2,35.2,0,0,0,12.607,2.73l29.688.882-.042,1.411-29.688-.881a36.662,36.662,0,0,1-13.111-2.841l-57.182-23.961a37.147,37.147,0,0,1-3.946-1.937L6079,4561.7a35.529,35.529,0,0,0-39.956,3.485l-44.849,37.053c-.954.789-1.962,1.539-2.994,2.23l-51.722,34.541a36.581,36.581,0,0,1-26.793,5.628l-40.58-7.159a35.221,35.221,0,0,0-19.949,2.272l-47.563,20.192A36.913,36.913,0,0,1,5790.207,4662.863Z" transform="translate(-14.865 -28.526)" fill="#ff441d"/><path d="M6221.017,4861.147h52.2l-47.78,100.779h2.542l48.091-101.436a1.149,1.149,0,0,0-1.039-1.641H6220.29a1.149,1.149,0,0,0-1.038.656l-48.558,102.42h2.542Z" transform="translate(-49.112 -53.79)" fill="#344554"/><path d="M6243.1,4861.147h52.369l25.669,100.779h2.37l-26.033-102.21a1.148,1.148,0,0,0-1.113-.866h-54.739a1.146,1.146,0,0,0-1.113,1.432l25.889,101.644h2.371Z" transform="translate(-54.927 -53.79)" fill="#344554"/><g transform="translate(6131.672 4837.157)"><rect width="55.635" height="3.195" transform="translate(23.533 0)" fill="#344554"/><path d="M6195.432,4920.131l-1.16,3.2h57.94l-1.145-3.2Z" transform="translate(-6182.749 -4896.053)" fill="#344554"/><path d="M6183.269,4945.586l-1.568,3.2h55.635l1.568-3.2Z" transform="translate(-6181.701 -4898.176)" fill="#344554"/></g><path d="M6221.806,4868.676l3.471-7.321h52.2l-3.47,7.321Z" transform="translate(-53.372 -53.998)" fill="#344554"/><path d="M6253.153,4847.407l-.176,4.777.885,2.432v2.461a1.33,1.33,0,0,1-1.24,1.332c-3.472.235-12.327.888-18.168.005-.41-.062,0-1.658,0-1.658l5.877-3.273,5.69-2.68,1.055-5.912Z" transform="translate(-54.41 -52.627)" fill="#344554"/><g transform="translate(6046.799 4553.36)"><path d="M6161.815,4660.735l-13.74-17.151-4.269,3.419,13.739,17.153a2.735,2.735,0,0,0,3.844.424h0A2.735,2.735,0,0,0,6161.815,4660.735Z" transform="translate(-6093.668 -4589.209)" fill="#0b3a57"/><circle cx="26.359" cy="26.359" r="26.359" transform="translate(0 45.29) rotate(-59.216)" fill="#6d98d9" opacity="0.5"/><path d="M6127.571,4633.815a20.005,20.005,0,0,1-8.466,14.234,26.316,26.316,0,0,1-17.23-35.67,20.078,20.078,0,0,1,25.7,21.437Z" transform="translate(-6089.999 -4586.539)" fill="#fff" opacity="0.3"/><path d="M6170.823,4670.286l-13.554-16.827a.792.792,0,0,0-1.111-.122l-4.933,3.953a.79.79,0,0,0-.122,1.113l13.552,16.825a3.952,3.952,0,0,0,5.555.614h0A3.952,3.952,0,0,0,6170.823,4670.286Z" transform="translate(-6094.263 -4590.008)" fill="#f36f21"/><path d="M6100.9,4617.989a24.808,24.808,0,1,1,21.934,27.38A24.836,24.836,0,0,1,6100.9,4617.989Zm57.172,6.314a32.713,32.713,0,1,0-36.107,28.922A32.749,32.749,0,0,0,6158.071,4624.3Z" transform="translate(-6089.421 -4584.576)" fill="#3c6179"/><g transform="translate(3.42 3.42)"><path d="M6105.428,4619.414a21.295,21.295,0,1,1,18.827,23.5A21.319,21.319,0,0,1,6105.428,4619.414Z" transform="translate(-6093.879 -4589.034)" fill="#fff" opacity="0.2"/><path d="M6093.041,4617.121a32.713,32.713,0,1,1,28.923,36.105A32.751,32.751,0,0,1,6093.041,4617.121Zm60.425,6.674a28.08,28.08,0,1,0-30.993,24.826A28.111,28.111,0,0,0,6153.466,4623.795Z" transform="translate(-6092.841 -4587.996)" fill="#0b3a57"/></g><path d="M6114.612,4616.4a4.642,4.642,0,1,0-4.1-5.123A4.641,4.641,0,0,0,6114.612,4616.4Z" transform="translate(-6090.892 -4586.172)" fill="#fff" opacity="0.8"/></g><path d="M6303.833,4839.293l1.607,5.208,1.324,1.41s1.021,2.5.5,3.279c-.846,1.281-5.879,1.932-5.879,1.932s-8.191,1.958-10.749.963c-.386-.149-.287-1.363-.287-1.363l6-3.565,2.465-2.656-1.37-3.559Z" transform="translate(-59.084 -52.16)" fill="#344554"/><path d="M6170.25,4662.192l-3.721-2.139-5.306-3.68-5.359.1-2.072,2.113.639,7.385,2.457,1.64,3.892,1.192,2.865-1.574,6.605,4.488,3.5-7.572Z" transform="translate(-47.703 -36.915)" fill="#fac5a6"/><path d="M6301.257,4707.107l1.229,2.777-.274,3.3,2.646,3.255,2.3.258,4.245-3.955-.172-2.306-1.143-2.974-2.352-1.008-2.5-3.592-4.706,2.867Z" transform="translate(-59.932 -40.789)" fill="#fac5a6"/><path d="M6235.593,4663.777s2.417,6.858,5.52,9.941l-7.655,3.369s.071-4.359-1.967-6.5S6235.593,4663.777,6235.593,4663.777Z" transform="translate(-54.144 -37.532)" fill="#fac5a6"/><path d="M6224.877,4645.792s-5.765,4.043-6.167,6.436-1.217,6.645,1.113,11.322,5.866,8.573,11.471,6.687c2.645-.891,3.542-3.015,3.7-5.4.086-1.268-.212-3.277-.162-3.7.143-1.223-.031-11.273-2.114-13.107S6226.749,4644.365,6224.877,4645.792Z" transform="translate(-53.074 -35.99)" fill="#fac5a6"/><path d="M6234.431,4663.069a43.665,43.665,0,0,0,1.41-6.516c.095-1.106-.4-8.793-2.09-11.161s-3.856-5.247-5.779-5.429-4.856.955-7.365,2.291-4.283,3.445-6.155,3a6.663,6.663,0,0,0-2.593-.281,5.54,5.54,0,0,0,.891,5.925c2.433,3.075,3.675,6.244,5.393,4.638,1.552-1.451,1.358-.323,2.166.557a24.093,24.093,0,0,1,1.879,2.55c.883-.108,1.336-1.469,2.173-1.818a1.853,1.853,0,0,1,1.989,2.68c-1.046,2.067,4.583,4.64,4.583,4.64S6234.247,4662.385,6234.431,4663.069Z" transform="translate(-52.502 -35.545)"/><path d="M6266.547,4740.555l10.763,48.141,17.648,46.739,8.169-3.106L6290,4785.161l-6.94-49.882Z" transform="translate(-57.1 -43.491)" fill="#0c4ba9"/><path d="M6227.529,4673.825c-4.806,1.516-6.688,5.361-15.09,6.511a38.658,38.658,0,0,1-16.167-1.212s-9.831-4.432-22.066-16.67c0,0-.538-.718-2.126,1.214s-1.426,2.14-2.458,3.325a12.78,12.78,0,0,0-1.806,3.422s.165.589,1.857,1.758,16.351,14.675,19.892,16.243a85.949,85.949,0,0,0,13.382,4.548c2.1.446,23.3,1.733,23.3,1.733l1.572.091-.275-3.95.842-6.513S6228.81,4673.421,6227.529,4673.825Z" transform="translate(-48.871 -37.411)" fill="#fbd15b"/><path d="M6261.91,4679.809s14.487,4.023,20.516,8.19l14.813,16.575a9.927,9.927,0,0,0,1.891-.737l4.242-2.42s.2-.189-.917-1.607-11.822-16.989-14.591-18.909-23.223-15.453-32.913-15.2C6254.95,4665.7,6254.106,4671.33,6261.91,4679.809Z" transform="translate(-56.131 -37.692)" fill="#fbd15b"/><path d="M6249.6,4738.345l-.543,52.551L6246.1,4839.7a.561.561,0,0,0,.566.615c1.245-.017,4.032.016,5.284.6a4.13,4.13,0,0,0,3.552.159c.627-.311,5.79-48.416,5.79-48.416l8.35-52.343Z" transform="translate(-55.396 -43.747)" fill="#2564c1"/><path d="M6284.1,4729.484a119.189,119.189,0,0,0-11.033-30.417c-4.121-7.389-4.062-7.725-6.888-12.9s-8.182-17.876-12.252-20.295c0,0-3.778-.992-11.5,2.771s-16.407,8.093-18.977,11.225-2.2,4.457-2.1,5.3,2.756,4.75,11.7,18.863,10.338,19.769,11.838,25.319c.688,2.543-1.218,11.252-.864,12.622C6249.785,4739.435,6275.13,4739.026,6284.1,4729.484Z" transform="translate(-53.327 -37.696)" fill="#fbd15b"/><path d="M5858.261,4954.848l.2,5.473-1.014,2.786v2.82a1.523,1.523,0,0,0,1.421,1.524c3.977.27,14.125,1.019,20.817.008.47-.072,0-1.9,0-1.9l-6.734-3.751-6.521-3.07-1.207-6.774Z" transform="translate(-23.004 -61.551)" fill="#344554"/><path d="M5800.325,4955.308l-1.84,5.967-2.179,4.243v4.243l6.821.2s7.125-.523,10.055-1.663c.443-.172.33-1.562.33-1.562l-4.612-2.422-2.823-3.042,1.569-4.078Z" transform="translate(-17.908 -61.829)" fill="#344554"/><circle cx="19.666" cy="19.666" r="19.666" transform="translate(5819.122 4646.563) rotate(-45)" fill="#6d98d9" opacity="0.5"/><path d="M5878.6,4686.132a14.924,14.924,0,0,0,11.249-5.112,19.631,19.631,0,0,0-25.041-15.7,14.981,14.981,0,0,0,13.792,20.812Z" transform="translate(-23.518 -37.591)" fill="#fff" opacity="0.6"/><g transform="translate(5822.526 4622.156)"><path d="M5901.649,4720.689l-16.753-16.753,4.17-4.169,16.753,16.753a2.949,2.949,0,0,1,0,4.17h0A2.949,2.949,0,0,1,5901.649,4720.689Z" transform="translate(-5847.817 -4662.688)" fill="#f36f21"/><path d="M5868.854,4665.213a18.509,18.509,0,1,0,18.509,18.509A18.531,18.531,0,0,0,5868.854,4665.213Zm0,42.916a24.407,24.407,0,1,1,24.407-24.407A24.435,24.435,0,0,1,5868.854,4708.129Z" transform="translate(-5844.446 -4659.316)" fill="#3c6179"/><g transform="translate(0 0)"><path d="M5869.629,4668.61a15.888,15.888,0,1,0,15.887,15.888A15.906,15.906,0,0,0,5869.629,4668.61Z" transform="translate(-5845.221 -4660.091)" fill="#fff" opacity="0.4"/><path d="M5868.854,4659.316a24.407,24.407,0,1,0,24.406,24.407A24.436,24.436,0,0,0,5868.854,4659.316Zm0,45.357a20.95,20.95,0,1,1,20.95-20.95A20.974,20.974,0,0,1,5868.854,4704.673Z" transform="translate(-5844.446 -4659.316)" fill="#0b3a57"/></g></g><path d="M5892.711,4721.54l.769-4.378-1.55-4.588,2.615-5.556,3.181-1.177,7.423,4.126.564,3.337-.576,4.628-2.987,2.259-2.294,5.985-7.694-2.419Z" transform="translate(-25.878 -41.038)" fill="#fac5a6"/><path d="M5787.049,4839.12l.353,3.461,2.146,3.125-.786,4.742-2.144,1.564-6.47-1.526-1.137-2.392-.552-3.609,1.768-2.338.452-5,6.311.181Z" transform="translate(-16.421 -51.982)" fill="#fac5a6"/><g transform="translate(5763.134 4678.577)"><path d="M5824.677,4757.166s1.489,8.2.151,13.027l9.532-.992s-2.547-4.3-1.734-7.589S5824.677,4757.166,5824.677,4757.166Z" transform="translate(-5783.407 -4723.892)" fill="#fac5a6"/><path d="M5824.359,4733.336s8.033.752,9.792,2.9,4.984,5.922,5.32,11.9-.97,11.863-7.619,13.168c-3.139.616-5.235-.99-6.751-3.269-.806-1.212-1.649-3.382-1.94-3.777-.837-1.137-6.369-11.236-5.339-14.244S5821.688,4732.979,5824.359,4733.336Z" transform="translate(-5782.825 -4721.904)" fill="#fac5a6"/><path d="M5824.1,4756.049a50.107,50.107,0,0,1-5.1-5.685c-.721-1.047-4.591-8.979-4.254-12.295s.857-7.411,2.668-8.684,5.375-1.808,8.629-1.9,6.22,1,7.829-.509a7.619,7.619,0,0,1,2.421-1.752,6.349,6.349,0,0,1,2.478,6.4c-.677,4.441-.112,8.3-2.736,7.677-2.368-.562-1.534.45-1.838,1.783a27.594,27.594,0,0,0-.422,3.606c-.939.394-2.164-.7-3.2-.576a2.124,2.124,0,0,0-.458,3.8c2.214,1.463-1.926,7.22-1.926,7.22S5823.892,4755.263,5824.1,4756.049Z" transform="translate(-5782.578 -4721.229)"/><path d="M5834.953,4838.117l-9.245,50.974-17.253,61.961-9.361-3.559,11.738-60.949,3.332-48.427Z" transform="translate(-5781.275 -4730.638)" fill="#112b46"/><path d="M5840.327,4762.912c5.643-1.219,9.7,1.538,18.714-2.087a44.289,44.289,0,0,0,15.4-10.387s7.269-9.991,12.5-29.118c0,0,.127-1.02,2.805,0s2.634,1.319,4.334,1.914a14.633,14.633,0,0,1,3.74,2.38s.171.681-.849,2.806-7.94,23.888-10.576,27.458A98.476,98.476,0,0,1,5875.66,4768c-1.834,1.635-22.2,14.954-22.2,14.954l-1.513.982-1.968-4.087-4.536-6S5838.823,4763.236,5840.327,4762.912Z" transform="translate(-5784.693 -4720.867)" fill="#e85b6c"/><path d="M5808.785,4789.37s-12.134,12.229-15.768,19.8l-5.331,24.907a11.347,11.347,0,0,1-2.3.339h-5.6s-.3-.076,0-2.12,2.119-23.62,3.785-27.1,14.338-28.565,24.127-33.815C5807.7,4771.378,5811.737,4776.5,5808.785,4789.37Z" transform="translate(-5779.655 -4725.076)" fill="#e85b6c"/><path d="M5853.655,4831.83l6.448,57.791,5.134,56.563a.64.64,0,0,1-.647.7c-1.426-.019-4.619.02-6.055.683a4.726,4.726,0,0,1-4.069.182c-.718-.356-8.386-56.113-8.386-56.113l-15.394-57.553Z" transform="translate(-5783.908 -4730.115)" fill="#112b46"/><path d="M5807.741,4772.051a36.931,36.931,0,0,1,16.322-4.845c9.818-.638,20.922-1.261,25.258.4s4.717,3.188,5.1,4.081-.046,6.292-.939,25.419,2.2,24.041,3.86,30.417,2.551,9.48,2.551,9.48a3.6,3.6,0,0,1-3.7.637c-2.041-.893-8.8,5.105-16.831,2.021s-10.42-3.493-14.117-1.341-8.188,2.635-12.142,2.635-3.825.51-2.8-6.758.629-10.723.547-19.312c-.094-9.693-.344-9.994-.471-16.752S5805.063,4776.769,5807.741,4772.051Z" transform="translate(-5781.932 -4724.673)" fill="#e85b6c"/></g><path d="M5866.771,4675.056a3.463,3.463,0,1,1-3.463-3.464A3.464,3.464,0,0,1,5866.771,4675.056Z" transform="translate(-23.204 -38.183)" fill="#fff" opacity="0.8"/><path d="M5870.16,4899.339l19.141-9.11a3.859,3.859,0,0,1,1.658-.374H5968.4v-63.71H6031.8v63.71h77.209a3.86,3.86,0,0,1,1.642.366l19.371,9.109a3.858,3.858,0,0,1-1.642,7.349H5871.819A3.857,3.857,0,0,1,5870.16,4899.339Z" transform="translate(-23.879 -51.064)" fill="#24b8eb"/><g transform="translate(6237.736 4302.871)"><path d="M6327.544,4345.74h30.136a30.136,30.136,0,1,1-30.136-30.137Z" transform="translate(-6297.408 -4311.384)" fill="#24b8eb"/><g transform="translate(35.183 0)"><path d="M6365.926,4341.136A30.136,30.136,0,0,0,6335.79,4311v30.136Z" transform="translate(-6335.79 -4311)" fill="#d3f1fb"/></g></g><g transform="translate(5801.936 4345.083)"><rect width="6.582" height="19.045" transform="translate(0 25.515)" fill="#bdeaf9"/><rect width="6.582" height="12.849" transform="translate(84.363 31.711)" fill="#bdeaf9"/><rect width="6.582" height="44.559" transform="translate(27.894)" fill="#bdeaf9"/><rect width="6.582" height="20.029" transform="translate(41.841 24.531)" fill="#bdeaf9"/><rect width="6.582" height="25.698" transform="translate(55.788 18.862)" fill="#bdeaf9"/><rect width="6.582" height="31.619" transform="translate(13.947 12.941)" fill="#bdeaf9"/><rect width="6.582" height="38.944" transform="translate(69.782 5.616)" fill="#bdeaf9"/></g><g transform="translate(5901.212 4250.67)"><path d="M8.169,0H107.53A8.169,8.169,0,0,1,115.7,8.169V44.117a8.17,8.17,0,0,1-8.17,8.17H8.169A8.169,8.169,0,0,1,0,44.118V8.169A8.169,8.169,0,0,1,8.169,0Z" fill="#24b8eb"/><rect width="109.373" height="36.096" rx="6.6" transform="translate(3.164 13.737)" fill="#fff"/><g transform="translate(4.77 3.848)"><rect width="4.533" height="4.079" rx="2.04" fill="#fff"/><rect width="4.533" height="4.079" rx="2.04" transform="translate(8.241)" fill="#fff"/><rect width="4.533" height="4.079" rx="2.04" transform="translate(16.482)" fill="#fff"/></g><path d="M6042.783,4277.356h-57.854a1.73,1.73,0,1,1,0-3.461h57.854a1.73,1.73,0,0,1,0,3.461Z" transform="translate(-5934.695 -4255.708)" fill="#bdeaf9"/><path d="M5995.313,4306.485H5937.46a1.73,1.73,0,1,1,0-3.461h57.852a1.73,1.73,0,1,1,0,3.461Z" transform="translate(-5930.74 -4258.136)" fill="#bdeaf9"/><rect width="7.17" height="3.461" rx="1.731" transform="translate(68.652 44.889)" fill="#bdeaf9"/><rect width="7.17" height="3.461" rx="1.731" transform="translate(77.677 44.889)" fill="#bdeaf9"/><path d="M6039.99,4285.685h-95.8a1.175,1.175,0,0,1,0-2.35h95.8a1.175,1.175,0,0,1,0,2.35Z" transform="translate(-5931.347 -4256.495)" fill="#bdeaf9"/><path d="M6039.99,4291.213h-95.8a1.175,1.175,0,0,1,0-2.35h95.8a1.175,1.175,0,0,1,0,2.35Z" transform="translate(-5931.347 -4256.955)" fill="#bdeaf9"/></g><g transform="translate(5991.71 4349.113)"><path d="M6061.958,4377.919a16.472,16.472,0,1,1-16.474-16.472A16.473,16.473,0,0,1,6061.958,4377.919Z" transform="translate(-6029.013 -4361.447)" fill="#74cd93"/><g transform="translate(9.557 11.144)"><path d="M6044.719,4384.571h-.029a.8.8,0,0,1-.575-.273l-4.474-5.083a.805.805,0,1,1,1.209-1.064l3.913,4.447,8.951-8.762a.806.806,0,0,1,1.128,1.151l-9.559,9.355A.805.805,0,0,1,6044.719,4384.571Z" transform="translate(-6039.439 -4373.604)" fill="#fff"/></g></g><g transform="translate(5581.44 4427.032)"><path d="M5670.152,4446.45h-73.6a15.153,15.153,0,0,0-15.108,15.109v12.564a15.153,15.153,0,0,0,15.108,15.109h59.024l17.15,17.15V4489a15.154,15.154,0,0,0,12.54-14.873V4461.56A15.154,15.154,0,0,0,5670.152,4446.45Z" transform="translate(-5581.44 -4446.45)" fill="#24b8eb"/><rect width="93.082" height="34.3" rx="13.975" transform="translate(98.452 38.542) rotate(180)" fill="#fff"/><path d="M5633.376,4460h42.045a1.844,1.844,0,0,0,0-3.688h-42.045a1.844,1.844,0,1,0,0,3.688Z" transform="translate(-5585.615 -4447.271)" fill="#bdeaf9"/><rect width="80.033" height="2.072" rx="1.036" transform="translate(91.65 19.775) rotate(-180)" fill="#bdeaf9"/><rect width="80.033" height="2.072" rx="1.036" transform="translate(91.65 23.789) rotate(-180)" fill="#bdeaf9"/></g><g transform="translate(6071.492 4272.862)"><rect width="8.784" height="7.905" rx="3.953" transform="translate(40.725 7.905) rotate(180)" fill="#66cdf1"/><rect width="8.784" height="7.905" rx="3.953" transform="translate(24.755 7.905) rotate(-180)" fill="#66cdf1"/><rect width="8.784" height="7.905" rx="3.953" transform="translate(8.784 7.905) rotate(-180)" fill="#66cdf1"/></g></g></svg>